<?xml version="1.0" standalone="no"?>
<!DOCTYPE svg PUBLIC "-//W3C//DTD SVG 20010904//EN"
 "http://www.w3.org/TR/2001/REC-SVG-20010904/DTD/svg10.dtd">
<svg version="1.0" xmlns="http://www.w3.org/2000/svg"
 width="2018.000000pt" height="2104.000000pt" viewBox="0 0 2018.000000 2104.000000"
 preserveAspectRatio="xMidYMid meet">
<metadata>
Created by potrace 1.16, written by Peter Selinger 2001-2019
</metadata>
<g transform="translate(0.000000,2104.000000) scale(0.100000,-0.100000)"
fill="#000000" stroke="none">
<path d="M11693 16183 c-7 -2 -13 -10 -13 -17 0 -8 -24 -34 -52 -60 -29 -26
-57 -52 -63 -58 -5 -5 -37 -36 -70 -68 -107 -104 -115 -112 -115 -122 0 -10
448 -4 608 8 l73 6 -43 39 c-51 45 -33 28 -168 167 -102 105 -124 119 -157
105z"/>
<path d="M15222 12609 c-53 -26 -81 -33 -163 -39 -88 -6 -101 -9 -122 -32 -23
-25 -38 -30 -124 -43 -28 -5 -44 -13 -48 -25 -9 -28 -57 -43 -113 -35 -42 5
-54 3 -85 -18 -20 -13 -53 -27 -75 -30 -21 -4 -47 -16 -58 -28 -32 -35 -54
-41 -172 -50 -63 -4 -118 -12 -121 -18 -14 -22 -67 -31 -179 -31 -64 0 -133
-3 -153 -6 l-36 -6 13 -39 c8 -21 23 -48 34 -59 11 -11 20 -24 20 -29 0 -5 11
-12 25 -15 18 -5 27 -15 31 -35 8 -38 73 -91 111 -91 33 0 53 -16 53 -42 0
-16 11 -18 108 -18 118 0 152 6 152 25 0 29 35 40 149 48 283 20 431 4 431
-48 0 -19 24 -25 100 -25 64 0 71 2 98 31 26 28 36 31 133 42 115 12 151 13
284 6 88 -4 91 -3 127 26 21 17 38 37 38 47 0 9 12 25 26 35 l26 19 -156 159
c-147 148 -157 160 -150 188 5 26 -1 36 -62 98 -38 38 -71 69 -74 69 -3 0 -34
-14 -68 -31z"/>
<path d="M15949 11473 c-1 -486 -10 -573 -58 -573 -20 0 -31 -26 -31 -71 0
-29 -27 -59 -53 -59 -21 0 -97 -72 -97 -92 0 -21 -33 -48 -57 -48 -14 0 -23
-8 -27 -24 -4 -16 -17 -28 -39 -35 -22 -8 -36 -21 -44 -41 -13 -34 -52 -48
-87 -32 -19 8 -28 6 -50 -15 -31 -29 -73 -43 -136 -44 l-45 -1 39 -8 c61 -11
76 -38 76 -130 0 -57 -4 -81 -15 -90 -8 -7 -15 -18 -15 -26 0 -19 -59 -84 -76
-84 -8 0 -14 -8 -14 -18 0 -25 -20 -42 -50 -42 -14 0 -38 -11 -54 -25 -16 -14
-32 -25 -36 -25 -4 0 -10 -9 -13 -20 -3 -10 -21 -27 -41 -36 -20 -10 -38 -26
-42 -36 -3 -10 -23 -28 -45 -41 -21 -12 -41 -29 -44 -38 -5 -15 -45 -39 -65
-39 -10 0 -46 -30 -100 -82 -21 -21 -44 -38 -52 -38 -7 0 -22 -14 -33 -30 -11
-17 -44 -45 -72 -63 -29 -17 -55 -39 -58 -48 -3 -9 -21 -24 -40 -34 -18 -11
-36 -29 -39 -41 -4 -14 -19 -27 -41 -35 -19 -7 -35 -19 -35 -25 0 -19 -29 -44
-51 -44 -11 0 -33 -13 -49 -30 -16 -16 -36 -30 -45 -30 -8 0 -29 -14 -47 -30
-17 -17 -42 -33 -54 -36 -12 -3 -28 -19 -34 -34 -8 -19 -24 -33 -46 -40 -18
-6 -36 -20 -39 -31 -9 -28 -42 -42 -81 -34 -26 4 -36 2 -40 -10 -4 -9 -28 -27
-55 -41 -27 -13 -49 -26 -49 -28 0 -15 34 -80 51 -97 11 -11 22 -33 26 -50 3
-16 13 -35 23 -42 21 -15 60 -90 60 -116 0 -11 9 -22 20 -26 42 -13 45 -35 48
-367 4 -303 5 -317 23 -323 11 -4 26 -19 34 -35 8 -15 26 -31 39 -34 16 -4 28
-16 32 -32 3 -13 19 -31 34 -39 16 -8 31 -24 35 -35 3 -11 11 -20 16 -20 5 0
17 -16 26 -35 9 -19 25 -37 35 -41 10 -3 18 -10 18 -15 0 -5 10 -19 22 -31 12
-12 25 -42 29 -67 10 -58 10 -820 0 -924 -4 -48 -12 -81 -20 -86 -15 -10 -18
-156 -6 -292 7 -81 -4 -109 -45 -109 -16 0 -18 -13 -22 -142 -5 -149 -15 -193
-50 -203 -10 -4 -18 -13 -18 -22 0 -8 -15 -30 -34 -49 l-34 -34 34 -51 c32
-47 34 -57 34 -129 0 -44 5 -82 10 -85 6 -4 207 -6 448 -5 361 1 442 3 466 15
16 8 42 15 58 15 l28 0 0 1411 0 1410 23 -1 c12 -1 30 -2 40 -1 9 1 153 137
320 304 166 167 316 315 334 329 31 25 32 30 35 104 3 75 4 79 27 82 25 4 241
211 241 231 0 6 10 16 22 22 12 7 181 170 374 363 194 193 365 363 381 377 15
14 42 41 60 60 17 19 37 39 43 44 6 6 21 21 34 35 14 14 29 30 35 35 7 6 22
21 35 35 13 14 53 52 90 85 36 33 66 63 66 68 0 5 -57 66 -127 137 -71 71
-133 134 -139 141 -6 6 -48 48 -93 92 -44 43 -81 82 -81 86 0 4 -13 15 -30 24
-16 10 -30 22 -30 27 0 11 -158 170 -169 170 -4 0 -13 11 -19 25 -7 14 -23 30
-37 37 -14 6 -25 15 -25 19 0 4 -61 68 -135 143 -74 75 -135 140 -135 146 0 5
-5 10 -11 10 -9 0 -40 31 -139 135 -60 63 -190 189 -207 200 l-23 15 -1 -417z
m-782 -1535 c11 -13 43 -43 71 -68 29 -25 52 -50 52 -57 0 -14 -71 -27 -99
-18 -26 8 -91 96 -91 123 0 18 22 41 41 42 3 0 14 -10 26 -22z"/>
<path d="M4336 11790 c-21 -27 -41 -50 -45 -50 -4 0 -156 -147 -338 -327 -182
-181 -353 -349 -379 -375 -27 -25 -85 -83 -129 -128 -44 -44 -158 -157 -253
-251 -124 -123 -170 -174 -164 -184 6 -11 118 -127 203 -210 5 -5 71 -73 146
-150 75 -77 258 -264 407 -417 334 -340 710 -725 1003 -1025 122 -126 229
-235 238 -243 23 -22 484 -492 512 -522 6 -7 62 -62 123 -123 62 -60 132 -131
155 -157 24 -26 56 -53 71 -59 20 -8 162 -11 463 -10 239 0 436 3 439 5 2 3 7
20 11 38 4 20 15 37 29 43 12 5 25 18 28 27 3 10 16 21 28 24 13 3 28 16 34
29 6 14 22 27 36 31 26 6 39 43 25 66 -5 7 -9 23 -9 36 0 12 -4 22 -9 22 -27
0 -41 34 -41 99 0 59 3 70 25 89 19 17 25 32 25 63 0 41 39 141 60 154 6 3 10
17 10 30 0 13 11 32 25 43 14 11 25 30 25 41 0 23 41 71 60 71 5 0 10 11 10
25 0 14 16 47 35 75 33 47 34 51 28 115 l-6 66 30 11 30 11 6 101 c6 112 -2
130 -56 140 -18 3 -48 26 -80 61 -29 31 -70 73 -91 93 -22 20 -48 46 -58 57
-11 11 -106 109 -213 217 -107 109 -195 202 -195 208 0 5 -8 14 -18 19 -9 5
-65 57 -122 116 -90 92 -515 523 -678 687 -29 29 -57 58 -62 63 -5 6 -108 110
-227 232 -120 122 -227 232 -239 245 -12 12 -76 76 -143 141 -66 65 -126 127
-131 138 -6 10 -17 19 -24 19 -8 0 -21 12 -31 26 -14 21 -96 108 -206 219
-130 131 -242 245 -258 263 -35 38 -71 30 -115 -28z"/>
<path d="M13260 10740 c11 -11 20 -27 20 -35 0 -8 7 -15 15 -15 27 0 73 -29
80 -50 4 -11 15 -20 26 -20 11 0 31 -11 45 -25 14 -14 44 -29 67 -35 23 -5 43
-14 45 -20 7 -19 33 -40 58 -45 13 -3 35 -7 49 -10 14 -3 31 -17 37 -30 6 -14
20 -25 30 -25 23 0 79 -28 93 -46 6 -8 30 -18 55 -22 25 -5 63 -20 85 -33 l40
-25 365 1 c364 0 365 1 419 25 30 13 48 25 40 27 -36 9 -100 50 -105 67 -6 18
-14 19 -143 13 -75 -3 -204 -2 -287 2 -144 8 -153 10 -211 40 -53 28 -67 32
-106 26 -54 -8 -84 0 -92 24 -6 20 -52 35 -97 32 -25 -2 -61 22 -69 48 -2 6
-35 15 -73 19 -60 8 -72 13 -95 40 -22 27 -33 32 -68 32 -23 0 -48 6 -56 14
-25 25 -88 46 -138 46 l-49 0 20 -20z"/>
<path d="M11700 7683 c-125 -128 -184 -199 -175 -213 3 -5 28 -10 55 -10 41 0
52 -4 74 -30 14 -17 38 -33 55 -36 16 -3 42 -19 57 -35 15 -16 34 -29 42 -29
8 0 34 -18 58 -40 24 -22 48 -40 54 -40 6 0 28 -11 48 -25 20 -14 51 -25 69
-25 25 0 39 -8 60 -35 15 -19 36 -35 47 -35 10 0 34 -16 53 -35 20 -20 45 -35
59 -35 13 0 38 -13 56 -29 30 -26 39 -28 81 -24 52 6 87 -13 87 -49 0 -13 7
-18 29 -18 20 0 37 -9 54 -29 16 -19 39 -32 63 -37 22 -4 51 -19 67 -36 16
-15 38 -28 49 -28 11 0 38 -16 60 -36 36 -32 43 -35 84 -28 49 7 70 -4 85 -43
5 -13 16 -23 26 -23 10 0 32 -11 48 -25 17 -13 49 -34 72 -45 23 -12 49 -32
57 -45 11 -17 26 -25 46 -25 17 0 39 -9 50 -20 11 -11 35 -23 53 -27 45 -8 65
-20 72 -42 3 -10 23 -25 45 -34 23 -9 44 -26 51 -40 7 -15 23 -27 39 -31 17
-3 31 -14 35 -26 3 -11 15 -25 26 -30 37 -20 21 24 -27 76 -25 27 -52 61 -59
75 -7 14 -32 34 -55 44 -23 10 -48 31 -55 45 -9 17 -25 30 -45 33 -19 4 -34
16 -41 31 -6 13 -23 26 -38 29 -14 3 -41 19 -60 36 -21 19 -46 31 -62 31 -15
0 -41 11 -57 25 -17 14 -36 25 -43 25 -26 0 -74 37 -109 84 -19 26 -50 65 -67
87 -23 29 -33 51 -33 75 0 25 -7 42 -25 57 -15 14 -30 44 -39 80 -11 41 -24
65 -46 83 -22 19 -30 34 -30 58 0 23 -9 41 -30 61 -20 19 -30 39 -30 59 -1 31
-29 71 -66 92 -10 6 -25 23 -32 37 -7 15 -17 27 -23 27 -5 0 -37 27 -71 60
-35 33 -71 60 -81 60 -10 0 -31 10 -48 22 -22 17 -50 24 -112 29 -73 7 -84 10
-108 37 -26 28 -28 29 -160 36 l-134 7 -105 -108z"/>
<path d="M4982 6457 l3 -1022 55 -7 c30 -3 622 -6 1315 -7 l1260 -1 -6 111
c-5 98 -8 113 -27 128 -26 20 -42 61 -42 109 0 22 -10 54 -25 77 -13 22 -25
46 -25 53 0 18 -62 78 -89 87 -11 3 -24 17 -27 30 -4 15 -15 25 -35 29 -21 4
-30 12 -34 33 -11 53 -28 98 -47 123 -37 49 -73 91 -114 133 -23 23 -44 53
-48 65 -4 12 -13 22 -21 22 -21 0 -45 29 -45 56 0 13 -4 24 -8 24 -10 0 -52
85 -52 105 0 8 -11 22 -24 30 -30 20 -43 54 -50 130 -4 45 -10 63 -26 75 -27
21 -39 75 -40 178 0 61 -4 88 -15 98 -10 10 -15 35 -15 68 0 29 -3 108 -7 175
l-6 122 -904 -1 -903 -1 2 -1022z"/>
<path d="M9054 7469 c-11 -6 -24 -25 -30 -42 -5 -19 -22 -40 -41 -52 -18 -11
-37 -34 -44 -53 -6 -18 -17 -36 -24 -38 -7 -3 -15 -19 -19 -35 -3 -16 -21 -45
-41 -64 -30 -30 -35 -43 -35 -80 0 -43 -24 -85 -49 -85 -5 0 -11 -13 -14 -29
-3 -16 -19 -42 -36 -58 -21 -21 -28 -37 -24 -51 9 -35 -5 -71 -30 -77 -15 -4
-28 -19 -36 -41 -7 -20 -24 -40 -37 -46 -20 -9 -24 -18 -24 -56 0 -36 -5 -48
-30 -70 -20 -18 -30 -36 -30 -55 0 -18 -12 -40 -35 -64 -26 -27 -35 -45 -35
-70 0 -38 -12 -65 -41 -94 -10 -10 -19 -29 -19 -40 0 -23 -33 -82 -62 -111
-10 -10 -18 -27 -18 -38 0 -30 -21 -69 -42 -75 -14 -5 -18 -16 -18 -53 0 -28
-8 -59 -18 -77 -13 -21 -21 -60 -25 -126 -7 -105 -20 -145 -49 -155 -17 -5
-18 -15 -16 -102 l3 -97 80 -3 c44 -1 91 -5 105 -8 24 -5 24 -6 6 -20 -14 -10
-48 -14 -108 -14 l-88 0 0 -56 c0 -56 0 -57 69 -130 46 -48 74 -87 82 -114 7
-22 18 -45 26 -51 10 -9 13 -3 13 32 0 24 7 62 15 84 8 22 14 54 15 72 0 17 7
38 15 47 8 8 15 30 15 48 0 56 30 218 45 248 12 22 15 68 15 194 0 171 7 211
42 221 10 4 18 9 18 13 11 153 22 204 52 223 5 3 12 26 15 50 6 53 29 118 50
141 10 11 17 44 20 90 6 101 10 116 36 124 31 9 37 22 37 77 0 45 24 87 49 87
5 0 11 14 15 32 16 79 27 107 46 113 12 4 20 15 20 28 0 12 9 36 20 52 11 17
20 42 20 57 0 15 7 33 16 40 52 42 64 62 64 104 0 46 25 84 55 84 10 0 15 11
15 35 0 26 8 42 34 65 25 23 32 37 28 55 -5 27 -7 28 -38 14z"/>
<path d="M9770 7066 c0 -22 -27 -44 -68 -56 -28 -7 -43 -20 -60 -50 -12 -22
-26 -40 -31 -40 -5 0 -8 -56 -7 -125 0 -69 4 -125 8 -125 4 0 10 -9 13 -21 5
-16 10 -18 21 -8 9 7 14 31 14 68 0 56 38 161 58 161 5 0 14 10 19 23 6 13 38
55 72 94 34 39 61 76 61 82 0 7 -20 11 -50 11 -37 0 -50 -4 -50 -14z"/>
<path d="M9808 3508 c6 -7 59 -62 117 -123 64 -67 108 -121 112 -137 5 -27 7
-28 74 -28 65 0 69 1 69 22 0 14 22 45 57 80 55 55 56 58 31 58 -15 0 -30 5
-34 11 -4 8 -33 9 -89 4 -80 -6 -83 -6 -103 19 -14 19 -29 26 -53 26 -43 0
-127 39 -135 62 -3 11 -15 18 -31 18 -19 0 -23 -3 -15 -12z"/>
</g>
</svg>
