<svg id="Capa_1" enable-background="new 0 0 510.044 510.044" height="512" viewBox="0 0 510.044 510.044" width="512" xmlns="http://www.w3.org/2000/svg"><g><g><path d="m152.781 159.068c-29.531-9.866-61.398-12.877-93.154-8.177l3.416 9.177-4.916 6.875c33.69 57.174 93.57 94.272 160.185 98.634l17.12 1.13 16.888 3.522v-71.539z" fill="#97da7b"/><path d="m266.012 166.409-55.24-68.46c-17.383-20.195-38.458-37.377-62.478-50.473l-5.086 7.316-9.847-3.795c-9.862 76.183 20.018 152.183 79.271 201.232l19.38 16.04 39.28 32.64z" fill="#ade194"/><g><path d="m459.849 160.847-4.24-6.263-.858-5.865c-30.736-4.067-61.502-.938-90.079 8.61l-114.566 85.83v26.115l31.916-4.305 17.12-1.13c67.714-4.434 128.48-42.684 161.842-101.471z" fill="#97da7b"/><path d="m376.701 51.201-11.59 1.938-3.336-5.677c-24.031 13.097-45.114 30.284-62.503 50.486l-62.824 129.317 8.819 56.243 32.765-15.24 19.38-16.04c59.2-49.004 89.081-124.912 79.289-201.027z" fill="#ade194"/><path d="m262.522 13.333-7.5 4.941-7.5-4.69c-27.952 40.386-42.3 87.75-42.3 135.494 0 30.96 6.03 62.08 18.31 91.55l10.29 24.69 15.27 33.64h12.19l13.94-33.64 10.74-25.76c31.072-74.567 22.176-159.733-23.44-226.225z" fill="#97da7b"/><g id="XMLID_270_"><g><path d="m392.642 314.039v154.47c0 18.8-15.24 34.04-34.03 34.04h-208.18c-18.79 0-34.03-15.24-34.03-34.04v-154.47c0-25.28 20.49-45.77 45.77-45.77h184.7c25.28 0 45.77 20.49 45.77 45.77z" fill="#efedef"/></g></g><path d="m174.777 468.509v-154.47c0-25.28 20.49-45.77 45.77-45.77h-58.375c-25.28 0-45.77 20.49-45.77 45.77v154.47c0 18.8 15.24 34.04 34.03 34.04h58.375c-18.79 0-34.03-15.24-34.03-34.04z" fill="#e5e1e5"/><g id="XMLID_271_"><g><path d="m362.642 314.039v154.47c0 2.23-1.81 4.04-4.03 4.04h-208.18c-2.22 0-4.03-1.81-4.03-4.04v-154.47c0-8.673 7.096-15.77 15.77-15.77h5.705c2.112 0 3.825-1.712 3.825-3.825v-25.175-1h166.64v1 25.175c0 2.112 1.712 3.825 3.825 3.825h4.705c8.674 0 15.77 7.096 15.77 15.77z" fill="#c68d7a"/></g></g><path d="m171.702 294.444c0 2.113-1.712 3.825-3.825 3.825h-5.705c-8.673 0-15.77 7.096-15.77 15.77v154.47c0 2.23 1.81 4.04 4.03 4.04h24.592c-.157-1.326-.247-2.672-.247-4.04v-154.47c0-25.28-6.584-45.77 18.696-45.77h-21.771v1z" fill="#bc7c63"/></g></g><g><path d="m470.541 149.001c-1.862-3.723-5.43-6.329-9.533-6.971l-.349-.055c-28.011-4.385-56.882-2.921-84.346 4.137 9.492-31.755 12.097-65.387 7.513-98.295-.602-4.316-3.268-8.097-7.132-10.113s-8.49-2.038-12.371-.063l-.344.175c-22.829 11.617-43.297 26.729-61.021 45.007-1.428-5.183-3.022-10.334-4.797-15.444-1.36-3.913-5.63-5.985-9.547-4.623-3.912 1.359-5.982 5.633-4.623 9.546 18.629 53.617 16.869 111.993-4.955 164.373l-10.039 24.094h-6.974v-62.486c0-4.142-3.357-7.5-7.5-7.5s-7.5 3.358-7.5 7.5v62.486h-6.974l-9.595-23.028c-15.088-36.212-20.703-75.954-16.237-114.928 3.884-33.898 15.332-66.635 33.307-95.552v101.96c0 4.142 3.357 7.5 7.5 7.5s7.5-3.358 7.5-7.5v-102.124c3.271 5.311 6.334 10.75 9.149 16.277 1.88 3.692 6.399 5.16 10.087 3.28 3.691-1.88 5.159-6.396 3.28-10.087-5.35-10.505-11.52-20.722-18.341-30.368l-.234-.33c-2.587-3.658-6.807-5.853-11.287-5.869-.018 0-.034 0-.051 0-4.462 0-8.676 2.16-11.279 5.785-16.724 23.279-29.22 49.356-36.956 76.838-17.681-18.184-38.08-33.231-60.827-44.807l-.34-.173c-3.883-1.977-8.509-1.953-12.374.062-3.863 2.016-6.529 5.796-7.131 10.112-4.584 32.903-1.98 66.53 7.507 98.28-27.462-7.055-56.334-8.506-84.348-4.121l-.332.053c-4.112.643-7.679 3.249-9.542 6.971-1.862 3.722-1.811 8.14.14 11.817 16.639 31.378 41.194 58.164 71.013 77.46 14.734 9.535 30.613 17.14 47.18 22.684-27.35 2.217-48.931 25.167-48.931 53.079v102.896c0 4.142 3.357 7.5 7.5 7.5s7.5-3.358 7.5-7.5v-102.895c0-21.103 17.168-38.271 38.27-38.271h2.023v15h-2.023c-12.831 0-23.27 10.439-23.27 23.271v154.472c0 6.358 5.173 11.531 11.531 11.531h208.172c6.358 0 11.531-5.173 11.531-11.531v-154.472c0-12.832-10.438-23.271-23.27-23.271h-1.023v-15h1.023c21.102 0 38.27 17.168 38.27 38.271v154.472c0 14.629-11.902 26.531-26.531 26.531h-208.174c-14.629 0-26.531-11.902-26.531-26.531v-19.614c0-4.142-3.357-7.5-7.5-7.5s-7.5 3.358-7.5 7.5v19.614c0 22.9 18.631 41.531 41.531 41.531h208.172c22.9 0 41.531-18.631 41.531-41.531v-154.472c0-27.664-21.197-50.462-48.201-53.023 15.279-5.094 29.988-11.925 43.727-20.411 3.524-2.177 4.616-6.798 2.439-10.322-2.177-3.523-6.8-4.615-10.322-2.439-25.137 15.528-53.744 25.158-83.088 28.02 10.278-8.76 19.766-18.382 28.331-28.757l115.293-58.342c-9.826 15.094-21.69 28.716-35.432 40.627-3.13 2.713-3.467 7.45-.754 10.58 1.483 1.711 3.571 2.587 5.67 2.587 1.741 0 3.491-.603 4.91-1.833 19.554-16.951 35.599-37.107 47.688-59.909 1.951-3.678 2.003-8.095.141-11.818zm-114.879-89.35-43.89 87.555c-.052-15.666-1.595-31.341-4.659-46.814 14.182-15.983 30.448-29.64 48.549-40.741zm-139.055 183.861 1.443 3.462-.636-.526c-28.362-23.479-50.399-54.031-63.729-88.353-11.638-29.969-16.42-62.296-14.068-94.292l61.183 123.91c3.043 19.106 8.332 37.859 15.807 55.799zm-13.944-143.423c-1.417 6.945-2.541 13.957-3.35 21.018-1.01 8.818-1.531 17.672-1.579 26.519l-43.478-88.054c18.039 11.046 34.257 24.627 48.407 40.517zm-63.018 63.285c.02.05.038.101.057.151 5.042 12.983 11.272 25.447 18.531 37.264l-90.497-45.795c24.21-1.724 48.73 1.116 71.909 8.38zm-77.883 5.409 115.255 58.323c8.566 10.376 18.054 19.998 28.333 28.759-30.764-2.994-60.567-13.369-86.546-30.18-22.79-14.749-42.251-34.225-57.042-56.902zm276.584 136.988h8.523c4.56 0 8.27 3.71 8.27 8.271v75.542h-119.669c-4.143 0-7.5 3.358-7.5 7.5s3.357 7.5 7.5 7.5h119.669v60.461h-201.234v-151.004c0-4.561 3.71-8.271 8.27-8.271h9.523c4.143 0 7.5-3.358 7.5-7.5v-22.5h151.648v22.5c0 4.143 3.358 7.501 7.5 7.501zm-45.716-59.323-2.161 1.789 2.413-5.79c7.498-17.996 12.759-36.658 15.798-55.598l61.739-123.162c2.372 32.034-2.406 64.403-14.059 94.408-13.331 34.322-35.368 64.874-63.73 88.353zm77.712-82.923c.019-.05.037-.099.057-.149 23.181-7.266 47.706-10.106 71.911-8.382l-90.5 45.796c7.26-11.817 13.489-24.282 18.532-37.265z"/><path d="m254.522 153.351c-4.143 0-7.5 3.358-7.5 7.5v8.417c0 4.142 3.357 7.5 7.5 7.5s7.5-3.358 7.5-7.5v-8.417c0-4.143-3.357-7.5-7.5-7.5z"/><path d="m205.216 389.583h-6.486c-4.143 0-7.5 3.358-7.5 7.5s3.357 7.5 7.5 7.5h6.486c4.143 0 7.5-3.358 7.5-7.5s-3.358-7.5-7.5-7.5z"/><path d="m249.76 337.022h-61.236c-4.143 0-7.5 3.358-7.5 7.5s3.357 7.5 7.5 7.5h61.236c4.143 0 7.5-3.358 7.5-7.5s-3.358-7.5-7.5-7.5z"/><path d="m319.16 337.022h-32.148c-4.143 0-7.5 3.358-7.5 7.5s3.357 7.5 7.5 7.5h32.148c4.143 0 7.5-3.358 7.5-7.5s-3.358-7.5-7.5-7.5z"/><path d="m232.014 312.729h9.58c4.143 0 7.5-3.358 7.5-7.5s-3.357-7.5-7.5-7.5h-9.58c-4.143 0-7.5 3.358-7.5 7.5s3.358 7.5 7.5 7.5z"/></g></g></svg>