<svg width="118" height="98" viewBox="0 0 118 98" fill="none" xmlns="http://www.w3.org/2000/svg">
<path fill-rule="evenodd" clip-rule="evenodd" d="M87.874 0.0222048L80.8832 5.90125L73.8659 6.26924e-08L73.7579 0.0982167L73.6499 2.52392e-06L66.6326 5.90125L59.6154 2.47204e-07L59.5073 0.0982257L59.3993 1.09324e-05L52.382 5.90125L45.3912 0.0222056L38.4003 5.90125L31.3831 0L30.0348 1.22576L38.4003 8.83102L45.3912 2.47552L52.382 8.83102L59.5073 2.35329L66.6326 8.83102L73.7579 2.3533L80.8832 8.83102L87.874 2.47551L94.8649 8.83102L103.23 1.22576L101.882 2.68589e-07L94.8649 5.90125L87.874 0.0222048Z" fill="#ED7303"/>
<path d="M22.5659 39.3545C22.5659 43.0605 21.7456 46.0049 20.105 48.1875C18.4644 50.3555 16.2598 51.4395 13.4912 51.4395C10.1807 51.4395 7.67578 50.209 5.97656 47.748L5.8667 51H3.40576V17.25H6.02051V30.6753C7.69043 28.0825 10.166 26.7861 13.4473 26.7861C16.2598 26.7861 18.479 27.8628 20.105 30.0161C21.7456 32.1548 22.5659 35.1357 22.5659 38.959V39.3545ZM19.9292 38.8931C19.9292 35.7583 19.3213 33.3413 18.1055 31.6421C16.8896 29.9282 15.1758 29.0713 12.9639 29.0713C11.2793 29.0713 9.85107 29.4888 8.6792 30.3237C7.50732 31.144 6.62109 32.3525 6.02051 33.9492V44.6719C7.33887 47.6602 9.66797 49.1543 13.0078 49.1543C15.1758 49.1543 16.8677 48.2974 18.0835 46.5835C19.314 44.8696 19.9292 42.3062 19.9292 38.8931ZM45.9316 47.9897C44.3496 50.2896 41.8228 51.4395 38.3511 51.4395C35.8169 51.4395 33.8906 50.707 32.5723 49.2422C31.2539 47.7627 30.5801 45.5801 30.5508 42.6943V27.2256H33.1655V42.3647C33.1655 46.8911 34.9966 49.1543 38.6587 49.1543C42.4673 49.1543 44.877 47.5796 45.8877 44.4302V27.2256H48.5244V51H45.9756L45.9316 47.9897ZM71.8682 44.9575C71.8682 43.6538 71.3408 42.6064 70.2861 41.8154C69.2461 41.0244 67.6714 40.4092 65.562 39.9697C63.4526 39.5156 61.812 39.0029 60.6401 38.4316C59.4829 37.8457 58.6187 37.1353 58.0474 36.3003C57.4907 35.4653 57.2124 34.4546 57.2124 33.2681C57.2124 31.3931 57.9961 29.8477 59.5635 28.6318C61.1309 27.4014 63.1377 26.7861 65.584 26.7861C68.2354 26.7861 70.3594 27.4453 71.9561 28.7637C73.5674 30.0674 74.373 31.7739 74.373 33.8833H71.7363C71.7363 32.4917 71.1504 31.3345 69.9785 30.4116C68.8213 29.4888 67.3564 29.0273 65.584 29.0273C63.8555 29.0273 62.4639 29.4155 61.4092 30.1919C60.3691 30.9536 59.8491 31.9497 59.8491 33.1802C59.8491 34.3667 60.2812 35.2896 61.1455 35.9487C62.0244 36.5933 63.6138 37.1865 65.9136 37.7285C68.228 38.2705 69.9565 38.8491 71.0991 39.4644C72.2563 40.0796 73.1133 40.8193 73.6699 41.6836C74.2266 42.5479 74.5049 43.5952 74.5049 44.8257C74.5049 46.8325 73.6919 48.4365 72.0659 49.6377C70.4546 50.8389 68.3452 51.4395 65.7378 51.4395C62.9692 51.4395 60.7207 50.7729 58.9922 49.4399C57.2783 48.0923 56.4214 46.3931 56.4214 44.3423H59.0581C59.1606 45.8804 59.8052 47.0815 60.9917 47.9458C62.1929 48.7954 63.7749 49.2202 65.7378 49.2202C67.5688 49.2202 69.0483 48.8174 70.1763 48.0117C71.3042 47.2061 71.8682 46.188 71.8682 44.9575ZM85.6318 51H82.9951V17.25H85.6318V51ZM93.5947 38.7612C93.5947 36.4761 94.0342 34.418 94.9131 32.5869C95.8066 30.7559 97.0591 29.335 98.6704 28.3242C100.296 27.2988 102.135 26.7861 104.186 26.7861C107.35 26.7861 109.913 27.8994 111.876 30.126C113.839 32.3379 114.82 35.2749 114.82 38.937V39.4863C114.82 41.7861 114.374 43.8589 113.48 45.7046C112.601 47.5356 111.356 48.9492 109.745 49.9453C108.133 50.9414 106.295 51.4395 104.229 51.4395C101.08 51.4395 98.5166 50.3335 96.5391 48.1216C94.5762 45.895 93.5947 42.9507 93.5947 39.2886V38.7612ZM96.2314 39.4863C96.2314 42.3281 96.9639 44.6646 98.4287 46.4956C99.9082 48.312 101.842 49.2202 104.229 49.2202C106.603 49.2202 108.521 48.312 109.986 46.4956C111.466 44.6646 112.206 42.2549 112.206 39.2666V38.7612C112.206 36.9448 111.869 35.2822 111.195 33.7734C110.521 32.2646 109.576 31.1001 108.36 30.2798C107.145 29.4448 105.753 29.0273 104.186 29.0273C101.842 29.0273 99.9302 29.9502 98.4507 31.7959C96.9712 33.627 96.2314 36.0293 96.2314 39.0029V39.4863Z" fill="#444141"/>
</svg>
