<?xml version="1.0" encoding="iso-8859-1"?>
<!-- Generator: Adobe Illustrator 19.0.0, SVG Export Plug-In . SVG Version: 6.00 Build 0)  -->
<svg version="1.1" id="Capa_1" xmlns="http://www.w3.org/2000/svg" xmlns:xlink="http://www.w3.org/1999/xlink" x="0px" y="0px"
	 viewBox="0 0 512.001 512.001" style="enable-background:new 0 0 512.001 512.001;" xml:space="preserve">
<rect x="106.71" y="215.78" style="fill:#FF7E7E;" width="323.33" height="59.15"/>
<polygon style="fill:#FFBAB8;" points="121.862,274.92 140.199,440.757 396.556,440.757 414.893,274.92 "/>
<path d="M354.691,321.951c-0.65,0-1.31-0.07-1.96-0.2c-0.63-0.13-1.26-0.32-1.87-0.57c-0.6-0.25-1.18-0.56-1.72-0.92
	c-0.55-0.36-1.06-0.78-1.52-1.24s-0.88-0.979-1.25-1.52c-0.36-0.55-0.67-1.13-0.92-1.73c-0.24-0.6-0.44-1.229-0.57-1.87
	c-0.13-0.64-0.19-1.3-0.19-1.949c0-0.66,0.06-1.311,0.19-1.96c0.13-0.641,0.33-1.261,0.57-1.87c0.25-0.601,0.56-1.181,0.92-1.721
	c0.37-0.55,0.79-1.06,1.25-1.52c0.461-0.47,0.97-0.88,1.52-1.25c0.54-0.36,1.12-0.67,1.72-0.92c0.61-0.25,1.24-0.441,1.87-0.57
	c3.25-0.649,6.71,0.41,9.03,2.74c0.46,0.46,0.88,0.97,1.24,1.52c0.36,0.54,0.67,1.12,0.92,1.721c0.25,0.609,0.44,1.229,0.57,1.87
	c0.13,0.649,0.2,1.3,0.2,1.96c0,0.649-0.07,1.31-0.2,1.949c-0.13,0.641-0.32,1.271-0.57,1.87c-0.25,0.601-0.56,1.181-0.92,1.73
	c-0.36,0.54-0.78,1.06-1.24,1.52C359.901,320.881,357.321,321.951,354.691,321.951z"/>
<rect x="83.068" y="39.958" transform="matrix(-0.982 0.1887 -0.1887 -0.982 498.1795 91.6323)" style="fill:#6F9CFF;" width="323.319" height="59.148"/>
<polygon style="fill:#8ABCFF;" points="106.428,126.226 134.121,215.775 405.76,215.775 394.197,70.943 "/>
<path d="M342.062,128.661c-0.65,0-1.31-0.061-1.961-0.191c-0.63-0.13-1.26-0.32-1.87-0.57c-0.6-0.25-1.18-0.56-1.72-0.92
	c-0.55-0.37-1.06-0.79-1.52-1.25s-0.88-0.97-1.25-1.52c-0.36-0.54-0.66-1.12-0.91-1.72c-0.25-0.61-0.45-1.24-0.57-1.87
	c-0.13-0.65-0.2-1.311-0.2-1.96c0-0.65,0.07-1.311,0.2-1.95c0.12-0.641,0.32-1.271,0.57-1.87c0.25-0.61,0.55-1.19,0.91-1.73
	c0.37-0.55,0.79-1.06,1.25-1.52s0.97-0.88,1.52-1.24c0.54-0.359,1.12-0.67,1.72-0.92c0.61-0.25,1.24-0.45,1.87-0.57
	c1.29-0.26,2.62-0.26,3.91,0c0.64,0.12,1.27,0.32,1.87,0.57c0.61,0.25,1.19,0.56,1.73,0.92c0.55,0.36,1.06,0.78,1.52,1.24
	s0.88,0.97,1.24,1.52c0.36,0.54,0.67,1.12,0.92,1.73c0.25,0.6,0.44,1.229,0.57,1.87c0.13,0.64,0.2,1.3,0.2,1.95
	c0,0.649-0.07,1.309-0.2,1.96c-0.13,0.63-0.32,1.26-0.57,1.87c-0.25,0.6-0.56,1.18-0.92,1.72c-0.36,0.55-0.78,1.06-1.24,1.52
	C347.271,127.591,344.691,128.661,342.062,128.661z"/>
<path style="fill:#FF5D5D;" d="M385.103,502.001H151.651c-20.155,0-37.475-14.304-41.284-34.096l-5.225-27.148h326.469
	l-5.225,27.148C422.578,487.697,405.259,502.001,385.103,502.001z"/>
<path d="M439.322,434.389c-1.9-2.3-4.727-3.632-7.71-3.632h-23.89l16.125-145.837h6.196c5.523,0,10-4.478,10-10v-59.145
	c0-5.522-4.477-10-10-10h-15.05L404.878,79.073l6.084-1.169c5.423-1.042,8.976-6.283,7.934-11.707L407.737,8.115
	c-1.042-5.425-6.282-8.974-11.707-7.934L78.504,61.18c-5.423,1.042-8.976,6.283-7.934,11.707l11.158,58.084
	c0.5,2.605,2.015,4.903,4.211,6.392c1.668,1.13,3.624,1.722,5.61,1.722c0.628,0,1.26-0.06,1.887-0.18l6.084-1.169l21.041,68.039
	h-13.85c-5.523,0-10,4.478-10,10v59.145c0,5.522,4.477,10,10,10h6.196l16.125,145.837h-23.889c-2.983,0-5.811,1.332-7.71,3.632
	c-1.899,2.301-2.673,5.329-2.109,8.258l5.225,27.148c4.706,24.456,26.198,42.206,51.104,42.206h233.452
	c24.905,0,46.397-17.75,51.103-42.206l5.225-27.148C441.996,439.717,441.222,436.69,439.322,434.389z M92.098,78.934l297.885-57.226
	l7.385,38.442l-5.056,0.971c-0.001,0-0.002,0-0.002,0l-287.77,55.283l-0.005,0.001l-5.053,0.971L92.098,78.934z M130.287,169.53
	l172.293-33.099c5.423-1.042,8.976-6.283,7.934-11.707c-1.042-5.424-6.283-8.974-11.707-7.934l-174.464,33.516l-5.062-16.366
	l90.848-17.453L385.117,82.87l9.813,122.905H141.496L130.287,169.53z M116.711,225.775h303.333v39.145H116.711V225.775z
	 M137.122,321.948h175.443c5.523,0,10-4.478,10-10s-4.477-10-10-10H134.911l-1.883-17.027h270.698l-16.125,145.837H149.154
	L137.122,321.948z M416.567,466.016c-2.898,15.057-16.13,25.985-31.464,25.985H151.651c-15.334,0-28.566-10.929-31.464-25.985
	l-2.937-15.259h302.253L416.567,466.016z"/>
<g>
</g>
<g>
</g>
<g>
</g>
<g>
</g>
<g>
</g>
<g>
</g>
<g>
</g>
<g>
</g>
<g>
</g>
<g>
</g>
<g>
</g>
<g>
</g>
<g>
</g>
<g>
</g>
<g>
</g>
</svg>
